<?xml version="1.0" encoding="UTF-8"?>
<svg id="Layer_2" data-name="Layer 2" xmlns="http://www.w3.org/2000/svg" viewBox="0 0 93.6 61.64">
  <defs>
    <style>
      .cls-1 {
        fill: #1e1e1e;
      }
    </style>
  </defs>
  <g id="OloSOma">
    <g>
      <g>
        <g>
          <path class="cls-1" d="M13.59,61.51c-.62,0-1.18-.09-1.68-.26-.5-.17-.93-.42-1.29-.74-.36-.32-.63-.7-.83-1.14-.19-.44-.29-.94-.29-1.48,0-.71.17-1.34.51-1.87s.81-.95,1.42-1.24,1.33-.44,2.16-.44c.61,0,1.17.09,1.67.26.5.17.93.41,1.29.72.36.31.64.68.83,1.12s.29.92.29,1.46c0,.72-.17,1.35-.51,1.89-.34.54-.82.96-1.43,1.27-.61.3-1.33.46-2.15.46ZM13.59,60.91c.68,0,1.27-.13,1.78-.38.51-.25.9-.6,1.18-1.05s.42-.98.42-1.59c0-.45-.08-.85-.24-1.21-.16-.36-.38-.67-.68-.93-.29-.26-.65-.46-1.07-.6s-.88-.21-1.4-.21c-.69,0-1.28.12-1.79.37-.51.24-.9.59-1.17,1.03-.27.44-.41.96-.41,1.56,0,.45.07.87.23,1.24.15.37.37.69.67.95.3.26.65.46,1.07.61s.88.22,1.4.22Z"/>
          <path class="cls-1" d="M21.17,61.43v-7.01h.68v6.54l-.11-.13h4.09v.6h-4.66Z"/>
          <path class="cls-1" d="M32.45,61.51c-.62,0-1.18-.09-1.68-.26-.5-.17-.93-.42-1.29-.74-.36-.32-.63-.7-.83-1.14-.19-.44-.29-.94-.29-1.48,0-.71.17-1.34.51-1.87.34-.53.81-.95,1.42-1.24.61-.29,1.33-.44,2.16-.44.61,0,1.17.09,1.67.26.5.17.93.41,1.29.72.36.31.64.68.83,1.12.19.43.29.92.29,1.46,0,.72-.17,1.35-.51,1.89-.34.54-.82.96-1.43,1.27-.61.3-1.33.46-2.15.46ZM32.45,60.91c.68,0,1.27-.13,1.78-.38.51-.25.9-.6,1.18-1.05.28-.45.42-.98.42-1.59,0-.45-.08-.85-.24-1.21-.16-.36-.38-.67-.68-.93-.29-.26-.65-.46-1.07-.6s-.88-.21-1.4-.21c-.69,0-1.29.12-1.79.37-.51.24-.9.59-1.17,1.03-.27.44-.4.96-.4,1.56,0,.45.07.87.22,1.24.15.37.37.69.67.95.3.26.65.46,1.07.61s.88.22,1.4.22Z"/>
          <path class="cls-1" d="M57.55,61.51c-.62,0-1.18-.09-1.68-.26-.5-.17-.93-.42-1.29-.74-.36-.32-.63-.7-.83-1.14-.19-.44-.29-.94-.29-1.48,0-.71.17-1.34.51-1.87s.81-.95,1.42-1.24,1.33-.44,2.16-.44c.61,0,1.17.09,1.67.26.5.17.93.41,1.29.72.36.31.64.68.83,1.12s.29.92.29,1.46c0,.72-.17,1.35-.51,1.89-.34.54-.82.96-1.43,1.27-.61.3-1.33.46-2.15.46ZM57.55,60.91c.68,0,1.27-.13,1.78-.38.51-.25.9-.6,1.18-1.05s.42-.98.42-1.59c0-.45-.08-.85-.24-1.21-.16-.36-.38-.67-.68-.93-.29-.26-.65-.46-1.07-.6s-.88-.21-1.4-.21c-.69,0-1.28.12-1.79.37-.51.24-.9.59-1.17,1.03-.27.44-.41.96-.41,1.56,0,.45.07.87.23,1.24.15.37.37.69.67.95.3.26.65.46,1.07.61s.88.22,1.4.22Z"/>
          <path class="cls-1" d="M64.78,61.43l.47-7.01h.76l3.46,6.41h-.26l3.29-6.41h.78l.53,7.01h-.68l-.48-6.16.11.06-3.17,6.1h-.54l-3.31-6.12.12-.02-.42,6.14h-.66Z"/>
          <path class="cls-1" d="M76.65,61.43l3.41-7.02h.64l3.38,7.02h-.76l-1.03-2.16.15.1h-4.14l.16-.12-1.06,2.18h-.75ZM78.61,58.92l-.11-.15h3.74l-.11.14-1.75-3.68-1.77,3.69Z"/>
        </g>
        <path class="cls-1" d="M50.1,57.75c0,.79-.11,1.48-.34,2.06-.22.58-.55,1.03-.97,1.35s-.92.47-1.49.47v-.59c.46,0,.86-.14,1.2-.41.34-.27.61-.65.8-1.15.19-.5.28-1.07.28-1.72,0-.61-.08-1.12-.25-1.56s-.41-.76-.72-.98c-.31-.22-.69-.33-1.14-.33-.39,0-.7.09-.95.27-.25.18-.44.43-.59.74-.15.31-.26.65-.35,1.03-.09.38-.17.78-.24,1.18-.07.41-.16.8-.26,1.18s-.24.73-.42,1.04c-.18.31-.41.56-.7.74s-.66.27-1.12.27c-.54,0-1-.13-1.39-.4-.39-.27-.68-.65-.89-1.14-.21-.5-.32-1.08-.32-1.76,0-.74.12-1.39.35-1.93.23-.54.56-.96.98-1.25.42-.29.91-.43,1.48-.43v.56c-.47,0-.87.13-1.21.38-.34.25-.6.6-.79,1.05-.19.45-.28.98-.28,1.6,0,.56.08,1.04.24,1.45.16.41.39.73.7.96.31.23.68.34,1.12.34.39,0,.7-.09.94-.28s.43-.43.56-.74c.14-.31.25-.66.33-1.05.08-.39.16-.79.23-1.19.07-.4.16-.8.28-1.18.11-.39.25-.73.43-1.05.18-.31.42-.56.72-.74.3-.18.69-.27,1.16-.27.56,0,1.03.14,1.42.41.39.27.69.66.89,1.18.21.51.31,1.13.31,1.86Z"/>
      </g>
      <g>
        <path class="cls-1" d="M34.44,8.75l-13.31,13.31-.48-.45c-.22-.23-.28-.64.04-.98l12.31-12.31c-3.24-3.02-7.44-4.68-11.9-4.68s-9.05,1.82-12.35,5.12c-3.3,3.3-5.12,7.69-5.12,12.35s1.82,9.05,5.12,12.35c3.3,3.3,7.69,5.12,12.35,5.12s9.05-1.82,12.35-5.12l25.23-25.14c-6.84-6.37-17.59-6.22-24.25.44Z"/>
        <path class="cls-1" d="M84.85,8.75c-6.81-6.81-17.89-6.81-24.71,0l-25.23,25.14c3.24,3.02,7.44,4.68,11.9,4.68s9.05-1.82,12.35-5.12l12.86-12.86c.32-.3.72-.24.94,0,.27.28.23.71-.08,1.01l-12.29,12.29c6.84,6.37,17.59,6.22,24.25-.44,6.81-6.81,6.81-17.89,0-24.71Z"/>
      </g>
      <path class="cls-1" d="M21.1,1.26c4.13,0,8.08,1.25,11.43,3.62l.69.48.73.51.73-.51.69-.48c3.34-2.36,7.29-3.61,11.42-3.61s8.1,1.25,11.45,3.62l.69.49.73.51.73-.51.69-.49c3.35-2.37,7.31-3.62,11.45-3.62,5.3,0,10.29,2.06,14.03,5.8,7.74,7.74,7.74,20.33,0,28.07-3.74,3.74-8.73,5.8-14.03,5.8-4.13,0-8.09-1.25-11.43-3.61l-.69-.48-.73-.51-.73.51-.69.48c-3.35,2.37-7.3,3.62-11.43,3.62s-8.09-1.26-11.44-3.63l-.69-.49-.73-.52-.73.52-.69.49c-3.35,2.38-7.31,3.63-11.44,3.63-5.3,0-10.29-2.06-14.03-5.81-3.75-3.75-5.81-8.73-5.81-14.03S3.32,10.82,7.07,7.07C10.82,3.32,15.8,1.26,21.1,1.26M21.1,0c-5.64,0-10.94,2.2-14.92,6.18C2.2,10.17,0,15.47,0,21.11s2.19,10.94,6.18,14.92c3.99,3.99,9.29,6.18,14.92,6.18,4.39,0,8.6-1.34,12.17-3.86l.69-.49.69.49c3.57,2.53,7.78,3.86,12.17,3.86s8.6-1.33,12.16-3.85l.69-.48.69.48c3.56,2.51,7.76,3.84,12.16,3.84,5.64,0,10.94-2.19,14.92-6.17,8.23-8.23,8.23-21.62,0-29.85C83.45,2.2,78.15.01,72.51.01c-4.4,0-8.61,1.33-12.18,3.85l-.69.49-.69-.49C55.39,1.34,51.18.01,46.78.01s-8.59,1.33-12.15,3.84l-.69.48-.69-.48c-3.56-2.52-7.77-3.85-12.16-3.85h0Z"/>
    </g>
  </g>
</svg>