<?xml version="1.0" encoding="UTF-8"?>
<svg id="Layer_2" data-name="Layer 2" xmlns="http://www.w3.org/2000/svg" viewBox="0 0 123.13 123.13">
  <defs>
    <style>
      .cls-1 {
        fill: #62bfa4;
      }

      .cls-2 {
        fill: none;
      }
    </style>
  </defs>
  <g id="Layer_1-2" data-name="Layer 1">
    <g>
      <g>
        <g>
          <path class="cls-1" d="M46.79,46.8l-15.91,15.91-.57-.54c-.27-.27-.34-.76.04-1.17l14.72-14.72c-3.88-3.61-8.9-5.59-14.23-5.59s-10.82,2.17-14.77,6.12c-3.94,3.94-6.12,9.19-6.12,14.77s2.17,10.82,6.12,14.77c3.94,3.94,9.19,6.12,14.77,6.12s10.82-2.17,14.77-6.12l30.16-30.06c-8.18-7.61-21.03-7.44-28.99.52Z"/>
          <path class="cls-1" d="M107.06,46.8c-8.14-8.14-21.39-8.14-29.53,0l-30.16,30.06c3.88,3.61,8.9,5.59,14.23,5.59s10.82-2.17,14.77-6.12l15.37-15.37c.38-.36.87-.28,1.13,0,.32.33.28.85-.09,1.21l-14.69,14.69c8.18,7.62,21.03,7.44,28.99-.52,8.14-8.14,8.14-21.39,0-29.53Z"/>
        </g>
        <path class="cls-1" d="M30.85,37.84c4.94,0,9.66,1.5,13.67,4.33l.82.58.87.61.87-.61.82-.58c4-2.82,8.72-4.31,13.66-4.31s9.68,1.5,13.69,4.33l.82.58.87.61.87-.61.82-.58c4.01-2.83,8.74-4.33,13.69-4.33,6.34,0,12.3,2.46,16.77,6.93,9.25,9.25,9.25,24.3,0,33.55-4.47,4.47-10.43,6.94-16.78,6.94-4.94,0-9.67-1.49-13.67-4.31l-.82-.58-.87-.61-.87.61-.82.58c-4,2.83-8.73,4.33-13.67,4.33s-9.67-1.5-13.68-4.34l-.82-.58-.87-.62-.87.62-.82.58c-4.01,2.84-8.74,4.34-13.68,4.34-6.34,0-12.3-2.47-16.78-6.95-4.48-4.48-6.95-10.44-6.95-16.78s2.47-12.3,6.95-16.78c4.48-4.48,10.44-6.95,16.78-6.95M30.85,36.33c-6.74,0-13.08,2.62-17.84,7.39-4.77,4.77-7.39,11.1-7.39,17.84s2.62,13.07,7.39,17.84c4.77,4.77,11.1,7.39,17.84,7.39,5.25,0,10.28-1.6,14.55-4.62l.82-.58.82.58c4.26,3.02,9.29,4.62,14.55,4.62s10.28-1.59,14.53-4.6l.82-.58.82.58c4.26,3,9.28,4.59,14.53,4.59,6.75,0,13.08-2.62,17.84-7.38,9.84-9.84,9.84-25.84,0-35.68-4.76-4.76-11.09-7.38-17.83-7.38-5.26,0-10.29,1.59-14.56,4.61l-.82.58-.82-.58c-4.26-3.01-9.3-4.61-14.56-4.61s-10.27,1.59-14.52,4.59l-.82.58-.82-.58c-4.26-3.01-9.28-4.6-14.53-4.6h0Z"/>
      </g>
      <rect class="cls-2" width="123.13" height="123.13"/>
    </g>
  </g>
</svg>