<?xml version="1.0" encoding="UTF-8"?>
<svg id="Layer_2" data-name="Layer 2" xmlns="http://www.w3.org/2000/svg" viewBox="0 0 88.84 59.26">
  <defs>
    <style>
      .cls-1 {
        fill: #62bfa4;
      }
    </style>
  </defs>
  <g id="OloSOma">
    <g>
      <path class="cls-1" d="M83.37,5.49c-7.18-7.17-18.77-7.29-26.1-.37-7.19-6.8-18.5-6.81-25.7-.02C28.08,1.81,23.54,0,18.73,0S9.02,1.95,5.49,5.48C1.95,9.02,0,13.73,0,18.73s1.95,9.7,5.48,13.24c3.54,3.54,8.24,5.49,13.24,5.49s9.37-1.82,12.86-5.12c3.49,3.3,8.03,5.12,12.86,5.12s9.36-1.81,12.84-5.1c7.33,6.91,18.92,6.78,26.09-.39,7.3-7.3,7.3-19.18,0-26.48ZM6.37,31.08c-3.3-3.3-5.12-7.69-5.12-12.35s1.82-9.05,5.12-12.35c3.3-3.3,7.69-5.12,12.35-5.12s8.66,1.66,11.9,4.68l-12.31,12.31c-.32.34-.26.75-.04.98l.48.45,13.31-13.31c6.66-6.66,17.41-6.81,24.25-.44l-25.23,25.14c-3.3,3.3-7.69,5.12-12.35,5.12s-9.05-1.82-12.35-5.12ZM82.48,31.08c-6.66,6.66-17.41,6.81-24.25.44l12.29-12.29c.31-.3.34-.73.08-1.01-.22-.23-.63-.29-.94,0l-12.86,12.86c-3.3,3.3-7.69,5.12-12.35,5.12s-8.66-1.66-11.9-4.68L57.77,6.37c6.81-6.81,17.89-6.81,24.71,0,6.81,6.81,6.81,17.89,0,24.71Z"/>
      <path class="cls-1" d="M44.48,18.73s-.02-.06-.06-.06-.06.02-.06.06.11.03.11,0Z"/>
      <g>
        <g>
          <path class="cls-1" d="M11.22,59.13c-.62,0-1.18-.09-1.68-.26-.5-.17-.93-.42-1.29-.74-.36-.32-.63-.7-.83-1.14-.19-.44-.29-.94-.29-1.48,0-.71.17-1.34.51-1.87s.81-.95,1.42-1.24,1.33-.44,2.16-.44c.61,0,1.17.09,1.67.26.5.17.93.41,1.29.72.36.31.64.68.83,1.12s.29.92.29,1.46c0,.72-.17,1.35-.51,1.89-.34.54-.82.96-1.43,1.27-.61.3-1.33.46-2.15.46ZM11.22,58.53c.68,0,1.27-.13,1.78-.38.51-.25.9-.6,1.18-1.05s.42-.98.42-1.59c0-.45-.08-.85-.24-1.21-.16-.36-.38-.67-.68-.93-.29-.26-.65-.46-1.07-.6s-.88-.21-1.4-.21c-.69,0-1.28.12-1.79.37-.51.24-.9.59-1.17,1.03-.27.44-.41.96-.41,1.56,0,.45.07.87.23,1.24.15.37.37.69.67.95.3.26.65.46,1.07.61s.88.22,1.4.22Z"/>
          <path class="cls-1" d="M18.79,59.05v-7.01h.68v6.54l-.11-.13h4.09v.6h-4.66Z"/>
          <path class="cls-1" d="M30.08,59.13c-.62,0-1.18-.09-1.68-.26-.5-.17-.93-.42-1.29-.74-.36-.32-.63-.7-.83-1.14-.19-.44-.29-.94-.29-1.48,0-.71.17-1.34.51-1.87.34-.53.81-.95,1.42-1.24.61-.29,1.33-.44,2.16-.44.61,0,1.17.09,1.67.26.5.17.93.41,1.29.72.36.31.64.68.83,1.12.19.43.29.92.29,1.46,0,.72-.17,1.35-.51,1.89-.34.54-.82.96-1.43,1.27-.61.3-1.33.46-2.15.46ZM30.08,58.53c.68,0,1.27-.13,1.78-.38.51-.25.9-.6,1.18-1.05.28-.45.42-.98.42-1.59,0-.45-.08-.85-.24-1.21-.16-.36-.38-.67-.68-.93-.29-.26-.65-.46-1.07-.6s-.88-.21-1.4-.21c-.69,0-1.29.12-1.79.37-.51.24-.9.59-1.17,1.03-.27.44-.4.96-.4,1.56,0,.45.07.87.22,1.24.15.37.37.69.67.95.3.26.65.46,1.07.61s.88.22,1.4.22Z"/>
          <path class="cls-1" d="M55.17,59.13c-.62,0-1.18-.09-1.68-.26-.5-.17-.93-.42-1.29-.74-.36-.32-.63-.7-.83-1.14-.19-.44-.29-.94-.29-1.48,0-.71.17-1.34.51-1.87s.81-.95,1.42-1.24,1.33-.44,2.16-.44c.61,0,1.17.09,1.67.26.5.17.93.41,1.29.72.36.31.64.68.83,1.12s.29.92.29,1.46c0,.72-.17,1.35-.51,1.89-.34.54-.82.96-1.43,1.27-.61.3-1.33.46-2.15.46ZM55.17,58.53c.68,0,1.27-.13,1.78-.38.51-.25.9-.6,1.18-1.05s.42-.98.42-1.59c0-.45-.08-.85-.24-1.21-.16-.36-.38-.67-.68-.93-.29-.26-.65-.46-1.07-.6s-.88-.21-1.4-.21c-.69,0-1.28.12-1.79.37-.51.24-.9.59-1.17,1.03-.27.44-.41.96-.41,1.56,0,.45.07.87.23,1.24.15.37.37.69.67.95.3.26.65.46,1.07.61s.88.22,1.4.22Z"/>
          <path class="cls-1" d="M62.4,59.05l.47-7.01h.76l3.46,6.41h-.26l3.29-6.41h.78l.53,7.01h-.68l-.48-6.16.11.06-3.17,6.1h-.54l-3.31-6.12.12-.02-.42,6.14h-.66Z"/>
          <path class="cls-1" d="M74.27,59.05l3.41-7.02h.64l3.38,7.02h-.76l-1.03-2.16.15.1h-4.14l.16-.12-1.06,2.18h-.75ZM76.24,56.55l-.11-.15h3.74l-.11.14-1.75-3.68-1.77,3.69Z"/>
        </g>
        <path class="cls-1" d="M47.73,55.38c0,.79-.11,1.48-.34,2.06-.22.58-.55,1.03-.97,1.35s-.92.47-1.49.47v-.59c.46,0,.86-.14,1.2-.41.34-.27.61-.65.8-1.15.19-.5.28-1.07.28-1.72,0-.61-.08-1.12-.25-1.56s-.41-.76-.72-.98c-.31-.22-.69-.33-1.14-.33-.39,0-.7.09-.95.27-.25.18-.44.43-.59.74-.15.31-.26.65-.35,1.03-.09.38-.17.78-.24,1.18-.07.41-.16.8-.26,1.18s-.24.73-.42,1.04c-.18.31-.41.56-.7.74s-.66.27-1.12.27c-.54,0-1-.13-1.39-.4-.39-.27-.68-.65-.89-1.14-.21-.5-.32-1.08-.32-1.76,0-.74.12-1.39.35-1.93.23-.54.56-.96.98-1.25.42-.29.91-.43,1.48-.43v.56c-.47,0-.87.13-1.21.38-.34.25-.6.6-.79,1.05-.19.45-.28.98-.28,1.6,0,.56.08,1.04.24,1.45.16.41.39.73.7.96.31.23.68.34,1.12.34.39,0,.7-.09.94-.28s.43-.43.56-.74c.14-.31.25-.66.33-1.05.08-.39.16-.79.23-1.19.07-.4.16-.8.28-1.18.11-.39.25-.73.43-1.05.18-.31.42-.56.72-.74.3-.18.69-.27,1.16-.27.56,0,1.03.14,1.42.41.39.27.69.66.89,1.18.21.51.31,1.13.31,1.86Z"/>
      </g>
    </g>
  </g>
</svg>